name Walk4.mot
datacolumns 19
datarows 10
range 2.00000000 2.04500000
endheader

                time	   L_ground_force_vx	   L_ground_force_vy	   L_ground_force_vz	   L_ground_force_px	   L_ground_force_py	   L_ground_force_pz	   R_ground_force_vx	   R_ground_force_vy	   R_ground_force_vz	   R_ground_force_px	   R_ground_force_py	   R_ground_force_pz	   L_ground_torque_x	   L_ground_torque_y	   L_ground_torque_z	   R_ground_torque_x	   R_ground_torque_y	   R_ground_torque_z	
          2.00000000	        -23.11261234	        529.53169474	         20.83360129	          0.49053380	          0.00000000	          0.24008015	          0.00000000	         -0.00000000	          0.00000000	          0.00000000	          0.00000000	         -0.00000000	          0.00000000	         -1.53378664	          0.00000000	          0.00000000	          0.00000000	          0.00000000	
          2.00500000	        -21.37804119	        525.36786309	         21.96418828	          0.49196993	          0.00000000	          0.23990561	          0.00000000	          0.00000000	          0.00000000	         -0.00000000	          0.00000000	          0.00000000	          0.00000000	         -1.63989335	          0.00000000	          0.00000000	          0.00000000	          0.00000000	
          2.01000000	        -19.74099983	        522.73101113	         23.58259524	          0.49363640	          0.00000000	          0.23965535	         -0.00000000	          0.00000000	         -0.00000000	         -0.00000000	          0.00000000	          0.00000000	          0.00000000	         -1.70509192	          0.00000000	          0.00000000	          0.00000000	          0.00000000	
          2.01500000	        -18.12689996	        521.20124078	         25.61341613	          0.49548499	          0.00000000	          0.23928731	         -0.00000000	          0.00000000	         -0.00000000	         -0.00000000	          0.00000000	          0.00000000	          0.00000000	         -1.72688941	          0.00000000	          0.00000000	         -0.00000000	          0.00000000	
          2.02000000	        -16.35406510	        520.90831384	         27.89139043	          0.49702445	          0.00000000	          0.23882520	          0.00000000	         -0.00000000	          0.00000000	          0.00000000	          0.00000000	         -0.00000000	          0.00000000	         -1.70452590	          0.00000000	          0.00000000	         -0.00000000	          0.00000000	
          2.02500000	        -14.36350181	        522.44500330	         30.19857456	          0.49839528	          0.00000000	          0.23845822	          0.00000000	         -0.00000000	          0.00000000	          0.00000000	          0.00000000	         -0.00000000	          0.00000000	         -1.66135331	          0.00000000	          0.00000000	         -0.00000000	          0.00000000	
          2.03000000	        -12.34485873	        525.77801592	         32.22107169	          0.50002402	          0.00000000	          0.23810198	          0.00000000	          0.00000000	          0.00000000	         -0.00000000	          0.00000000	         -0.00000000	          0.00000000	         -1.61871887	          0.00000000	          0.00000000	          0.00000000	          0.00000000	
          2.03500000	        -10.44951599	        530.43758824	         33.61772093	          0.50185083	          0.00000000	          0.23775928	         -0.00000000	          0.00000000	         -0.00000000	         -0.00000000	          0.00000000	          0.00000000	          0.00000000	         -1.63673901	          0.00000000	          0.00000000	          0.00000000	          0.00000000	
          2.04000000	         -8.73956363	        536.66694460	         34.36460263	          0.50361105	          0.00000000	          0.23735204	         -0.00000000	          0.00000000	         -0.00000000	         -0.00000000	          0.00000000	          0.00000000	          0.00000000	         -1.65636843	          0.00000000	          0.00000000	          0.00000000	          0.00000000	
          2.04500000	         -7.07344406	        544.74049229	         34.61636807	          0.50501237	          0.00000000	          0.23702765	         -0.00000000	         -0.00000000	         -0.00000000	          0.00000000	          0.00000000	          0.00000000	          0.00000000	         -1.69818558	          0.00000000	          0.00000000	         -0.00000000	          0.00000000	
